<svg xmlns="http://www.w3.org/2000/svg" width="33.621" height="33.621" viewBox="0 0 33.621 33.621"><defs><style>.a{fill:none;stroke:#db1569;stroke-linecap:round;stroke-linejoin:round;stroke-width:3px;}</style></defs><g transform="translate(1.5 1.5)"><path class="a" d="M7.833,4.5H31.167A3.333,3.333,0,0,1,34.5,7.833V31.167A3.333,3.333,0,0,1,31.167,34.5H7.833A3.333,3.333,0,0,1,4.5,31.167V7.833A3.333,3.333,0,0,1,7.833,4.5Z" transform="translate(-4.5 -4.5)"/><path class="a" d="M15.511,13.006A2.506,2.506,0,1,1,13.006,10.5,2.506,2.506,0,0,1,15.511,13.006Z" transform="translate(-3.836 -3.836)"/><path class="a" d="M34.159,23.352,25.828,15,7.5,33.374" transform="translate(-4.159 -3.374)"/></g></svg>