<svg xmlns="http://www.w3.org/2000/svg" width="27.992" height="31.849" viewBox="0 0 27.992 31.849"><defs><style>.a{fill:#db1569;stroke:#db1569;}</style></defs><g transform="translate(-66.899 -864.076)"><path class="a" d="M30.22,12.685a27.311,27.311,0,0,0-2.626-3,27.323,27.323,0,0,0-3-2.626c-1.554-1.139-2.307-1.271-2.739-1.271H10.765a2.413,2.413,0,0,0-2.41,2.41V30.367a2.413,2.413,0,0,0,2.41,2.41H29.081a2.413,2.413,0,0,0,2.41-2.41V15.424c0-.432-.132-1.185-1.271-2.739Zm-3.99-1.64A26.3,26.3,0,0,1,28.417,13.5H23.779V8.859a26.276,26.276,0,0,1,2.451,2.186Zm3.333,19.322a.489.489,0,0,1-.482.482H10.765a.489.489,0,0,1-.482-.482V8.194a.489.489,0,0,1,.482-.482H21.851V14.46a.964.964,0,0,0,.964.964h6.748ZM20.734,3.2C19.18,2.06,18.427,1.928,17.995,1.928H6.909A2.413,2.413,0,0,0,4.5,4.338V26.51a2.414,2.414,0,0,0,1.928,2.362V4.338a.489.489,0,0,1,.482-.482H21.576c-.291-.239-.573-.46-.842-.657Z" transform="translate(62.9 862.648)"/></g></svg>