<svg xmlns="http://www.w3.org/2000/svg" width="33.189" height="36.514" viewBox="0 0 33.189 36.514"><defs><style>.a{fill:none;stroke:#db1569;stroke-linecap:round;stroke-linejoin:round;stroke-width:3px;}</style></defs><g transform="translate(1.594 1.551)"><path class="a" d="M34.5,26.331V13a3.333,3.333,0,0,0-1.667-2.883L21.167,3.45a3.334,3.334,0,0,0-3.333,0L6.167,10.116A3.333,3.333,0,0,0,4.5,13V26.331a3.333,3.333,0,0,0,1.667,2.883L17.833,35.88a3.334,3.334,0,0,0,3.333,0l11.667-6.666A3.333,3.333,0,0,0,34.5,26.331Z" transform="translate(-4.5 -3.003)"/><path class="a" d="M4.9,10.44l14.539,8.617L33.984,10.44" transform="translate(-4.444 -2.243)"/><path class="a" d="M18,35.2V18" transform="translate(-3 -1.738)"/></g></svg>