<?xml version="1.0" encoding="utf-8"?>
<!-- Generator: Adobe Illustrator 24.1.3, SVG Export Plug-In . SVG Version: 6.00 Build 0)  -->
<svg version="1.1" id="Layer_1" xmlns="http://www.w3.org/2000/svg" xmlns:xlink="http://www.w3.org/1999/xlink" x="0px" y="0px"
	 viewBox="0 0 50 50" style="enable-background:new 0 0 50 50;" xml:space="preserve">
<style type="text/css">
	.st0{fill:#FEAFBB;}
</style>
<path id="Icon_awesome-instagram" class="st0" d="M25,12.2c-7.1,0-12.8,5.7-12.8,12.8S17.9,37.8,25,37.8S37.8,32.1,37.8,25
	S32.1,12.2,25,12.2L25,12.2z M25,33.4c-4.6,0-8.4-3.8-8.4-8.4s3.8-8.4,8.4-8.4s8.4,3.8,8.4,8.4l0,0C33.4,29.6,29.6,33.4,25,33.4z
	 M41.5,11.6c0,1.7-1.4,3.1-3.1,3.1s-3.1-1.4-3.1-3.1s1.4-3.1,3.1-3.1C40.1,8.6,41.5,10,41.5,11.6L41.5,11.6z M50,14.7
	c-0.1-4-1.1-7.5-4-10.5s-6.6-3.9-10.5-4c-4.2-0.3-16.6-0.3-20.6,0C10.7,0.3,7,1.2,4.1,4.1s-3.9,6.6-4,10.5c-0.3,4.2-0.3,16.6,0,20.6
	c0.1,4,1.1,7.5,4,10.5s6.6,3.9,10.5,4c4.2,0.3,16.6,0.3,20.6,0c4-0.1,7.5-1.1,10.5-4c2.9-2.9,3.9-6.6,4-10.5
	C50.1,31.3,50.1,18.9,50,14.7L50,14.7z M44.5,39.8c-0.8,2.2-2.6,3.9-4.7,4.7c-3.3,1.3-11.2,1-14.8,1s-11.4,0.4-14.8-1
	c-2.2-0.8-3.9-2.6-4.7-4.7c-1.3-3.3-1-11.2-1-14.8s-0.4-11.4,1-14.8C6.3,8,8.2,6.3,10.2,5.5c3.3-1.3,11.2-1,14.8-1s11.6-0.4,14.8,1
	c2.2,0.8,3.9,2.6,4.7,4.7c1.3,3.3,1,11.2,1,14.8S45.9,36.4,44.5,39.8z"/>
</svg>
