<?xml version="1.0" encoding="utf-8"?>
<!-- Generator: Adobe Illustrator 24.1.3, SVG Export Plug-In . SVG Version: 6.00 Build 0)  -->
<svg version="1.1" id="Layer_1" xmlns="http://www.w3.org/2000/svg" xmlns:xlink="http://www.w3.org/1999/xlink" x="0px" y="0px"
	 viewBox="0 0 50 50" style="enable-background:new 0 0 50 50;" xml:space="preserve">
<style type="text/css">
	.st0{fill:#FEAFBB;}
</style>
<path class="st0" d="M28.3,50H19c-0.8,0-1.5-0.7-1.5-1.5V31.2H12c-0.8,0-1.5-0.7-1.5-1.5v-9.3c0-0.8,0.7-1.5,1.5-1.5h5.4v-5.4
	C17.5,6,23.5,0,30.8,0H38c0.8,0,1.5,0.7,1.5,1.5v9.3c0,0.8-0.7,1.5-1.5,1.5h-7.1c-0.4,0-0.8,0.4-0.8,0.8v5.4h7.8
	c0.4,0,1,0.3,1.3,0.6c0.3,0.4,0.4,0.8,0.3,1.4L37,29.9c-0.1,0.7-0.8,1.3-1.5,1.3H30v17.3C30,49.3,29.3,50,28.3,50z M20.5,46.8h6.3
	V29.7c0-0.8,0.7-1.5,1.5-1.5h5.8l1.5-6.3h-7.4c-0.8,0-1.5-0.7-1.5-1.5v-7.1c0-2.2,1.8-3.9,3.9-3.9h5.4V3.1h-5.4
	c-5.6,0-10.2,4.6-10.2,10.2v7.1c0,0.8-0.7,1.5-1.5,1.5h-5.4v6.3H19c0.8,0,1.5,0.7,1.5,1.5C20.5,29.7,20.5,46.8,20.5,46.8z"/>
</svg>
