<?xml version="1.0" encoding="utf-8"?>
<!-- Generator: Adobe Illustrator 24.1.3, SVG Export Plug-In . SVG Version: 6.00 Build 0)  -->
<svg version="1.1" id="Layer_1" xmlns="http://www.w3.org/2000/svg" xmlns:xlink="http://www.w3.org/1999/xlink" x="0px" y="0px"
	 viewBox="0 0 100 39.4" style="enable-background:new 0 0 100 39.4;" xml:space="preserve">
<style type="text/css">
	.st0{fill:none;}
	.st1{fill:#F16EA0;}
</style>
<g>
	<path class="st0" d="M57.9,10.8c-2.1,0-4.2,1.1-6.2,3.3l0,13.2c0.5,0.6,1.1,1.2,1.8,1.7c1.2,0.9,2.4,1.4,3.7,1.4
		c2.9,0,4.8-1.4,6-4.3c0.6-1.6,1-3.6,1-6c0-2.8-0.5-5-1.6-6.5C61.3,11.6,59.8,10.8,57.9,10.8z"/>
	<path class="st0" d="M13.3,14.2c-0.5-1.1-1.1-1.9-2-2.5c-0.8-0.6-1.8-0.9-2.8-0.9c-2.3,0-4.1,1.2-5.3,3.7c-0.6,1.3-0.9,2.6-1,4
		h11.9C14.1,16.8,13.8,15.4,13.3,14.2z"/>
	<path class="st1" d="M14.2,27.3c-1.5,1.9-3.3,2.9-5.3,2.9c-1.4,0-2.6-0.4-3.5-1.2c-1.2-1-2.1-2.4-2.5-3.9c-0.3-1.2-0.5-2.7-0.7-4.5
		h14.3c0-2.5-0.3-4.5-0.9-6.1c-1.4-3.7-3.8-5.5-7.2-5.5c-3.3,0-5.7,1.6-7.2,4.8c-0.9,1.8-1.3,4-1.3,6.7c0,2.6,0.5,4.8,1.4,6.8
		c1.5,3.3,4,4.9,7.5,4.9c2.7,0,4.8-1,6.5-3.1c0.5-0.7,1-1.4,1.5-2.2l-1.6-1C14.9,26.3,14.6,26.8,14.2,27.3z M3.2,14.5
		c1.2-2.5,2.9-3.7,5.3-3.7c1,0,2,0.3,2.8,0.9c0.9,0.6,1.5,1.4,2,2.5c0.5,1.2,0.9,2.7,0.9,4.4H2.3C2.3,17.1,2.7,15.8,3.2,14.5z"/>
	<rect x="22" y="0" class="st1" width="2.2" height="31.8"/>
	<rect x="31.2" y="0" class="st1" width="2.2" height="31.8"/>
	<rect x="40.1" y="1.3" class="st1" width="2.5" height="3.2"/>
	<rect x="40.3" y="9.2" class="st1" width="2.2" height="22.6"/>
	<path class="st1" d="M61.7,9.8c-1.1-0.6-2.3-1-3.6-1c-2.4,0-4.5,1.1-6.4,3.4v-3h-2.2v30.2h2.2V29.2c0.5,0.6,1.1,1.1,1.7,1.6
		c1.2,0.9,2.7,1.4,4.2,1.4c3.2,0,5.6-1.5,7.2-4.5c1.1-2.1,1.7-4.6,1.7-7.5c0-3.1-0.6-5.7-1.9-7.7C63.8,11.3,62.8,10.4,61.7,9.8z
		 M63.2,25.9c-1.2,2.9-3.2,4.3-6,4.3c-1.3,0-2.6-0.5-3.7-1.4c-0.6-0.5-1.2-1.1-1.8-1.7l0-13.2c2-2.2,4.1-3.3,6.2-3.3
		c1.9,0,3.5,0.9,4.7,2.7c1.1,1.5,1.6,3.7,1.6,6.5C64.1,22.3,63.8,24.3,63.2,25.9z"/>
	<path class="st1" d="M86,21.5c-0.8-0.7-2.4-1.4-4.8-2.2c-1.9-0.7-3.2-1.2-3.9-1.6c-1.4-0.8-2.1-1.9-2.1-3.1c0-1.1,0.4-2,1.3-2.7
		c0.9-0.7,2-1.1,3.4-1.1c2.2,0,4.1,1,5.7,3l1.6-1.2c-1.9-2.4-4.2-3.6-7.1-3.6c-2,0-3.7,0.5-5,1.5C73.7,11.6,73,13,73,14.7
		c0,1.6,0.6,2.9,1.9,3.9c1.3,1,3.2,1.9,5.8,2.6c1.5,0.5,2.7,1,3.5,1.6c1,0.7,1.4,1.7,1.4,3c0,1-0.4,1.9-1.2,2.8
		c-1,1.1-2.4,1.6-4.2,1.6c-2.6,0-4.7-1.2-6.3-3.6l-1.8,1.1c2,3,4.6,4.5,7.8,4.5c2.4,0,4.2-0.6,5.7-1.9c1.4-1.3,2.2-2.8,2.2-4.6
		C87.9,23.9,87.3,22.5,86,21.5z"/>
	<polygon class="st1" points="90.9,9.8 92.4,9.8 92.4,13.7 93.4,13.7 93.4,9.8 94.8,9.8 94.8,9 90.9,9 	"/>
	<polygon class="st1" points="98.6,9 97.7,12.6 96.7,9 95.3,9 95.3,13.7 96.3,13.7 96.3,9.9 97.2,13.7 98.1,13.7 99,9.9 99,13.7 
		100,13.7 100,9 	"/>
</g>
</svg>
