<?xml version="1.0" encoding="utf-8"?>
<!-- Generator: Adobe Illustrator 24.1.3, SVG Export Plug-In . SVG Version: 6.00 Build 0)  -->
<svg version="1.1" id="Layer_1" xmlns="http://www.w3.org/2000/svg" xmlns:xlink="http://www.w3.org/1999/xlink" x="0px" y="0px"
	 viewBox="0 0 69.2 50" style="enable-background:new 0 0 69.2 50;" xml:space="preserve">
<style type="text/css">
	.st0{fill:#FEAFBB;}
</style>
<g id="Icon_feather-youtube" transform="translate(0.001 -4.5)">
	<path class="st0" d="M34.6,54.5c-2.1,0-20.7,0-26-1.4c-3.5-1-6.2-3.8-7.2-7.2c0-0.1,0-0.1,0-0.3C0.4,40.3,0,34.9,0,29.5
		c0-5.3,0.4-10.7,1.4-16v-0.1C2.2,9.8,5,6.9,8.6,5.9c5.3-1.4,23.9-1.4,26-1.4c0.8,0,20.6,0,25.8,1.2c3.6,1,6.4,3.9,7.4,7.5v0.1
		c1,5.3,1.4,10.7,1.4,16.1c0,5.3-0.4,10.7-1.4,15.8v0.1c-0.8,3.6-3.6,6.5-7.2,7.5C55.3,54.5,36.7,54.5,34.6,54.5z M5.7,44.8
		c0.6,1.9,2.2,3.5,4.2,4c3.9,1.1,19.2,1.2,24.7,1.2s20.8-0.3,24.9-1.3c1.9-0.6,3.6-2.2,4.2-4.3c0.8-5,1.4-10,1.2-15
		c0-5.1-0.4-10.3-1.2-15.3c-0.6-2.1-2.1-3.6-4.2-4.3c-4-0.8-19.3-1-24.9-1S13.8,9.2,9.7,10.2c-2.1,0.6-3.6,2.2-4.2,4.3
		c-0.8,5-1.4,10-1.2,15.1C4.3,34.6,4.7,39.8,5.7,44.8z"/>
	<path class="st0" d="M27.9,41.4c-0.4,0-0.7-0.1-1.1-0.3c-0.7-0.4-1.1-1.1-1.1-1.9V19.9c0-0.8,0.4-1.5,1.1-1.9s1.5-0.4,2.2,0
		L46,27.6c0.7,0.4,1.1,1.1,1.1,1.9S46.7,31,46,31.4L29,41.2C28.8,41.3,28.3,41.4,27.9,41.4z M30.1,23.7v11.8l10.3-5.8L30.1,23.7z"/>
</g>
</svg>
