<svg width="50" height="38" viewBox="0 0 50 38" fill="none" xmlns="http://www.w3.org/2000/svg">
<path d="M21.7 20.7C22.5 22.2 22.8 23.9 22.8 25.7C22.8 29 21.7 31.7 19.5 33.9C17.3 36 14.6 37.1 11.3 37.1C8.2 37.1 5.5 36.1 3.3 34.1C1.1 32.1 0 29.3 0 25.9C0 23.1 1 20.1 3 17L13.8 0H25.3L18.4 16.9C19.8 17.9 20.9 19.1 21.7 20.7ZM46.3 20.7C47.1 22.2 47.5 23.9 47.5 25.7C47.5 29 46.4 31.7 44.2 33.9C42 36 39.3 37.1 36 37.1C32.9 37.1 30.2 36.1 28 34.1C25.8 32.1 24.7 29.3 24.7 25.9C24.7 23.1 25.7 20.1 27.7 17L38.4 0H49.9L43 16.9C44.5 17.9 45.6 19.1 46.3 20.7Z" fill="#F34F96"/>
</svg>
