<svg width="50" height="38" viewBox="0 0 50 38" fill="none" xmlns="http://www.w3.org/2000/svg">
<path d="M28.2 16.4C27.4 14.9 27.1 13.2 27.1 11.4C27.1 8.1 28.2 5.4 30.4 3.2C32.6 1.1 35.3 0 38.6 0C41.7 0 44.4 1 46.6 3C48.8 5 49.9 7.8 49.9 11.2C49.9 14 48.9 17 46.9 20.1L36.1 37.1H24.7L31.6 20.2C30.1 19.2 29 18 28.2 16.4ZM3.6 16.4C2.8 14.9 2.4 13.2 2.4 11.4C2.4 8.1 3.5 5.4 5.7 3.2C7.9 1.1 10.6 0 13.9 0C17 0 19.7 1 21.9 3C24.1 5 25.2 7.8 25.2 11.2C25.2 14 24.2 17 22.2 20.1L11.5 37.1H0L6.9 20.2C5.4 19.2 4.3 18 3.6 16.4Z" fill="#F34F96"/>
</svg>
